<svg width="32" height="32" viewBox="0 0 32 32" fill="none" xmlns="http://www.w3.org/2000/svg">
<path d="M31.966 10.7652V28.8422C31.966 29.0136 31.8213 29.1476 31.6498 29.1476H0.494836C0.323398 29.1476 0.178711 29.0136 0.178711 28.8422V10.7652H31.966Z" fill="#45484A"/>
<path d="M6.22973 8.6759L4.55292 12.1378H9.26629L10.9432 8.6759H6.22973Z" fill="#FAFAFB"/>
<path d="M2.50392 8.67566L2.11811 9.47935V9.48466L1.75917 10.2241L1.49667 10.7652L1.44842 10.8563L1.14304 11.4938L0.832293 12.1368V12.1421H0.151855V8.67566H2.50392Z" fill="#FAFAFB"/>
<path d="M14.667 8.6759L12.9902 12.1378H17.7036L19.3805 8.6759H14.667Z" fill="#FAFAFB"/>
<path d="M29.8648 12.1378H31.9617V8.6759H31.5417L29.8648 12.1378Z" fill="#FAFAFB"/>
<path d="M23.1044 8.6759L21.4276 12.1378H26.1409L27.8177 8.6759H23.1044Z" fill="#FAFAFB"/>
<path d="M2.50585 8.6759L0.829041 12.1378H4.55292L6.22973 8.6759H2.50585Z" fill="#45484A"/>
<path d="M10.9432 8.6759L9.2663 12.1378H12.9902L14.667 8.6759H10.9432Z" fill="#45484A"/>
<path d="M19.3805 8.6759L17.7036 12.1378H21.4276L23.1044 8.6759H19.3805Z" fill="#45484A"/>
<path d="M27.8177 8.6759L26.1409 12.1378H29.8648L31.5417 8.6759H27.8177Z" fill="#45484A"/>
<g opacity="0.8">
<path d="M4.09514 14.6602C4.06302 14.5852 4.00946 14.5209 3.94514 14.4566C3.87546 14.403 3.79508 14.3548 3.69333 14.3227C3.59689 14.2905 3.47902 14.2745 3.36114 14.2745H2.42896V16.2782H2.89508V15.5228H3.36121C3.47908 15.5228 3.59696 15.5067 3.69339 15.4692C3.79521 15.4425 3.87558 15.3942 3.94521 15.3407C4.00952 15.2817 4.06308 15.2121 4.09521 15.137C4.13808 15.062 4.15414 14.9817 4.15414 14.896C4.15408 14.8157 4.13802 14.7353 4.09514 14.6602ZM3.59152 15.0995C3.53258 15.1478 3.44689 15.1746 3.33433 15.1746H2.89502V14.6227H3.33433C3.44683 14.6227 3.53258 14.6495 3.59152 14.6977C3.65046 14.7513 3.68258 14.8156 3.68258 14.896C3.68264 14.9817 3.65046 15.046 3.59152 15.0995Z" fill="#F6F5F5"/>
<path d="M5.8311 15.4103C5.88473 15.3943 5.93829 15.3728 5.99716 15.3407C6.04541 15.3086 6.0936 15.2764 6.1311 15.2282C6.17398 15.1853 6.2061 15.1318 6.22754 15.0782C6.25435 15.0247 6.26504 14.9549 6.26504 14.8853C6.26504 14.7996 6.24898 14.7246 6.21148 14.6496C6.17935 14.5746 6.12579 14.5157 6.06148 14.4567C5.99185 14.4032 5.91148 14.355 5.81504 14.3228C5.7186 14.2906 5.6061 14.2746 5.48823 14.2746H4.54523V16.2783H5.01135V15.4747H5.34891L5.82041 16.2783H6.36154L5.8311 15.4103ZM5.70248 15.0782C5.64354 15.1263 5.55779 15.1532 5.45604 15.1532H5.01135V14.6228H5.45604C5.55779 14.6228 5.64354 14.6495 5.70248 14.6923C5.76679 14.746 5.79891 14.8103 5.79891 14.8853C5.79891 14.9656 5.76679 15.03 5.70248 15.0782Z" fill="#F6F5F5"/>
<path d="M8.44024 15.0192C8.43493 14.9442 8.42418 14.8692 8.40812 14.8049C8.39743 14.7406 8.37062 14.6817 8.33312 14.6228C8.30631 14.5745 8.25812 14.521 8.19918 14.4674C8.11881 14.4031 8.02237 14.3495 7.92056 14.312C7.81337 14.2745 7.69556 14.2585 7.55624 14.2585C7.41693 14.2585 7.29374 14.2745 7.19193 14.312C7.08474 14.3496 6.99368 14.4032 6.91331 14.4674C6.85437 14.521 6.80612 14.5745 6.77399 14.6228C6.74187 14.6817 6.71506 14.7407 6.69899 14.8049C6.68831 14.8692 6.67756 14.9442 6.67756 15.0192C6.67218 15.0942 6.67218 15.18 6.67218 15.2764C6.67218 15.3729 6.67218 15.4585 6.67756 15.5336C6.67756 15.614 6.68831 15.6837 6.69899 15.7425C6.71506 15.8069 6.74187 15.8711 6.77399 15.9247C6.80612 15.9783 6.85437 16.0318 6.91331 16.08C6.99368 16.1444 7.08474 16.2032 7.19193 16.2354C7.29374 16.2729 7.41693 16.2943 7.55624 16.2943C7.69556 16.2943 7.81343 16.2729 7.92056 16.2354C8.02237 16.2032 8.11881 16.1443 8.19918 16.08C8.25812 16.0318 8.30631 15.9783 8.33312 15.9247C8.37062 15.8711 8.39743 15.8068 8.40812 15.7425C8.42418 15.6836 8.43493 15.614 8.44024 15.5336C8.44024 15.4586 8.44562 15.3729 8.44562 15.2764C8.44562 15.18 8.44024 15.0942 8.44024 15.0192ZM7.96874 15.5121C7.96343 15.5765 7.95806 15.6246 7.94731 15.6675C7.93656 15.7104 7.92587 15.7371 7.90981 15.7639C7.89374 15.7907 7.88306 15.8121 7.85624 15.8336C7.81874 15.8657 7.78124 15.8925 7.72768 15.9139C7.67943 15.9354 7.62587 15.9461 7.55624 15.9461C7.49193 15.9461 7.43299 15.9354 7.37943 15.9139C7.33124 15.8925 7.29374 15.8657 7.25087 15.8336C7.22943 15.8122 7.20799 15.7907 7.19731 15.7639C7.18656 15.7371 7.17049 15.7104 7.15981 15.6675C7.15443 15.6245 7.14374 15.5764 7.14374 15.5121C7.13837 15.4532 7.13837 15.3728 7.13837 15.2764C7.13837 15.18 7.13837 15.0996 7.14374 15.0354C7.14374 14.9764 7.15449 14.9228 7.15981 14.88C7.17049 14.8424 7.18662 14.805 7.19731 14.7782C7.20799 14.7568 7.22943 14.7354 7.25087 14.7139C7.29374 14.6817 7.33124 14.6549 7.37943 14.6335C7.43299 14.6121 7.49193 14.6067 7.55624 14.6067C7.62593 14.6067 7.67949 14.6121 7.72768 14.6335C7.78124 14.6549 7.81874 14.6817 7.85624 14.7139C7.88306 14.7353 7.89374 14.7568 7.90981 14.7782C7.92587 14.805 7.93656 14.8425 7.94731 14.88C7.95806 14.9228 7.96337 14.9764 7.96874 15.0354C7.96874 15.0996 7.97412 15.18 7.97412 15.2764C7.97412 15.3728 7.96874 15.4532 7.96874 15.5121Z" fill="#F6F5F5"/>
<path d="M10.6424 14.8638C10.637 14.8049 10.6155 14.7513 10.5995 14.7031C10.578 14.6549 10.5459 14.6067 10.5137 14.5692C10.428 14.4674 10.3262 14.3924 10.2084 14.3495C10.0905 14.2959 9.95117 14.2745 9.78505 14.2745H8.92249V16.2783H9.78505C9.95111 16.2783 10.0904 16.2515 10.2084 16.2087C10.3262 16.1551 10.428 16.0855 10.5137 15.9837C10.5459 15.9408 10.578 15.8925 10.5995 15.8497C10.6155 15.7961 10.637 15.7479 10.6424 15.689C10.653 15.63 10.6584 15.5711 10.6638 15.5014V15.0461C10.6584 14.9817 10.653 14.9174 10.6424 14.8638ZM10.1923 15.48C10.1869 15.5389 10.1815 15.5871 10.1762 15.6246C10.1762 15.6675 10.1655 15.6997 10.1494 15.7264C10.1387 15.7532 10.1173 15.78 10.0959 15.8014C10.0155 15.8818 9.90299 15.9247 9.74761 15.9247H9.38867V14.6228H9.74761C9.90299 14.6228 10.0155 14.6656 10.0959 14.746C10.1173 14.7728 10.1387 14.7942 10.1494 14.8209C10.1655 14.8531 10.1762 14.8853 10.1762 14.9281C10.1815 14.9656 10.1869 15.0138 10.1923 15.0728V15.48Z" fill="#F6F5F5"/>
<path d="M12.405 14.2745V15.5765C12.405 15.6943 12.3728 15.7853 12.2978 15.8497C12.2174 15.9086 12.121 15.9461 11.987 15.9461C11.8638 15.9461 11.762 15.9085 11.687 15.8497C11.612 15.7853 11.5745 15.6943 11.5745 15.5765V14.2745H11.1083V15.5925C11.1083 15.6997 11.1244 15.7961 11.178 15.8818C11.2208 15.9676 11.2798 16.0425 11.3655 16.1015C11.4459 16.1604 11.537 16.2087 11.6441 16.2408C11.7513 16.2783 11.8692 16.2943 11.987 16.2943C12.1157 16.2943 12.2281 16.2783 12.3353 16.2408C12.4425 16.2087 12.5335 16.1604 12.6139 16.1015C12.6942 16.0425 12.7585 15.9676 12.8068 15.8818C12.8496 15.7961 12.8711 15.6997 12.8711 15.5925V14.2745H12.405Z" fill="#F6F5F5"/>
<path d="M14.473 15.8657C14.4087 15.9139 14.3177 15.9461 14.1998 15.9461C14.1355 15.9461 14.0766 15.9354 14.023 15.9139C13.9747 15.8925 13.9319 15.8711 13.8997 15.839C13.8783 15.8175 13.8569 15.796 13.8408 15.7692C13.8247 15.7425 13.8194 15.7104 13.8087 15.6675C13.8033 15.6245 13.7926 15.5764 13.7872 15.5121C13.7819 15.4532 13.7819 15.3728 13.7819 15.2764C13.7819 15.18 13.7819 15.0996 13.7872 15.0354C13.7926 14.9764 13.8033 14.9228 13.8087 14.88C13.8194 14.8424 13.8247 14.805 13.8408 14.7782C13.8569 14.7568 13.8783 14.73 13.8997 14.7085C13.9319 14.6817 13.9747 14.6549 14.023 14.6335C14.0765 14.6121 14.1355 14.6067 14.1998 14.6067C14.3177 14.6067 14.4087 14.6335 14.4677 14.687C14.532 14.7407 14.5802 14.805 14.6016 14.8907H15.0785C15.0356 14.6818 14.9285 14.521 14.7731 14.4192C14.6177 14.312 14.4195 14.2585 14.1999 14.2585C14.0606 14.2585 13.9374 14.2745 13.8355 14.312C13.7337 14.3496 13.6427 14.4032 13.557 14.4674C13.4927 14.521 13.4498 14.5745 13.4123 14.6228C13.3855 14.6817 13.3587 14.7407 13.3427 14.8049C13.3266 14.8692 13.3212 14.9442 13.3159 15.0192V15.5335C13.3212 15.6139 13.3265 15.6836 13.3427 15.7425C13.3587 15.8068 13.3855 15.871 13.4123 15.9246C13.4498 15.9782 13.4927 16.0317 13.557 16.08C13.6427 16.1443 13.7337 16.2032 13.8355 16.2354C13.9374 16.2729 14.0606 16.2942 14.1999 16.2942C14.4195 16.2942 14.6178 16.2354 14.7731 16.1335C14.9285 16.0264 15.0356 15.871 15.0785 15.6567H14.6016C14.5802 15.7425 14.532 15.8068 14.473 15.8657Z" fill="#F6F5F5"/>
<path d="M15.3035 14.2745V14.6228H15.9357V16.2783H16.4018V14.6228H17.0287V14.2745H15.3035Z" fill="#F6F5F5"/>
<path d="M17.4091 14.2745V16.2783H17.8805V14.2745H17.4091Z" fill="#F6F5F5"/>
<path d="M20.1201 15.0192C20.1201 14.9442 20.1094 14.8692 20.0987 14.8049C20.0826 14.7406 20.0558 14.6817 20.0183 14.6228C19.9915 14.5745 19.9433 14.521 19.8844 14.4674C19.804 14.4031 19.7075 14.3495 19.6057 14.312C19.5039 14.2745 19.3807 14.2585 19.2414 14.2585C19.1021 14.2585 18.9842 14.2745 18.8771 14.312C18.7699 14.3496 18.6789 14.4032 18.5985 14.4674C18.5395 14.521 18.4913 14.5745 18.4592 14.6228C18.4217 14.6817 18.4056 14.7407 18.3895 14.8049C18.3735 14.8692 18.3628 14.9442 18.3628 15.0192C18.3574 15.0942 18.3574 15.18 18.3574 15.2764C18.3574 15.3729 18.3574 15.4585 18.3628 15.5336C18.3628 15.614 18.3735 15.6837 18.3895 15.7425C18.4056 15.8069 18.4217 15.8711 18.4592 15.9247C18.4913 15.9783 18.5395 16.0318 18.5985 16.08C18.6789 16.1444 18.7699 16.2032 18.8771 16.2354C18.9843 16.2729 19.1021 16.2943 19.2414 16.2943C19.3807 16.2943 19.5039 16.2729 19.6057 16.2354C19.7075 16.2032 19.804 16.1443 19.8844 16.08C19.9433 16.0318 19.9915 15.9783 20.0183 15.9247C20.0558 15.8711 20.0826 15.8068 20.0987 15.7425C20.1094 15.6836 20.1201 15.614 20.1201 15.5336C20.1254 15.4586 20.1254 15.3729 20.1254 15.2764C20.1254 15.18 20.1255 15.0942 20.1201 15.0192ZM19.654 15.5121C19.6486 15.5765 19.6432 15.6246 19.6325 15.6675C19.6218 15.7104 19.6111 15.7371 19.595 15.7639C19.5844 15.7907 19.5629 15.8121 19.5415 15.8336C19.5094 15.8657 19.4665 15.8925 19.4183 15.9139C19.3647 15.9354 19.3058 15.9461 19.2415 15.9461C19.1772 15.9461 19.1183 15.9354 19.07 15.9139C19.0165 15.8925 18.9736 15.8657 18.9361 15.8336C18.9147 15.8122 18.8986 15.7907 18.8825 15.7639C18.8665 15.7371 18.8557 15.7104 18.845 15.6675C18.8343 15.6245 18.829 15.5764 18.829 15.5121V15.0354C18.829 14.9764 18.8344 14.9228 18.845 14.88C18.8557 14.8424 18.8665 14.805 18.8825 14.7782C18.8986 14.7568 18.9147 14.7354 18.9361 14.7139C18.9736 14.6817 19.0165 14.6549 19.07 14.6335C19.1183 14.6121 19.1772 14.6067 19.2415 14.6067C19.3058 14.6067 19.3647 14.6121 19.4183 14.6335C19.4665 14.6549 19.5094 14.6817 19.5415 14.7139C19.5629 14.7353 19.5844 14.7568 19.595 14.7782C19.6112 14.805 19.6219 14.8425 19.6325 14.88C19.6433 14.9228 19.6486 14.9764 19.654 15.0354C19.6593 15.0996 19.6593 15.18 19.6593 15.2764C19.6593 15.3728 19.6594 15.4532 19.654 15.5121Z" fill="#F6F5F5"/>
<path d="M21.9739 14.2745V15.5014L21.0255 14.2745H20.6076V16.2783H21.0737V15.046L22.0274 16.2783H22.4453V14.2745H21.9739Z" fill="#F6F5F5"/>
</g>
<path d="M11.112 17.6792H10.8116V21.9591H11.112V17.6792Z" fill="white"/>
<path d="M21.3333 17.6792H21.0329V21.9591H21.3333V17.6792Z" fill="white"/>
<path d="M28.4028 22.71H3.74194V23.0104H28.4028V22.71Z" fill="white"/>
<g opacity="0.2">
<path d="M28.4028 22.9978H3.74194V23.2982H28.4028V22.9978Z" fill="white"/>
</g>
<g opacity="0.2">
<path d="M28.4028 25.676H3.74194V25.9763H28.4028V25.676Z" fill="white"/>
</g>
<path d="M28.4028 25.338H3.74194V25.6384H28.4028V25.338Z" fill="white"/>
<path d="M31.584 5.48431L32 5.42618L31.8764 4.56793L31.584 5.48431Z" fill="#FAFAFB"/>
<path d="M3.99687 5.7345L0 6.27681L0.469375 9.70668L2.80469 9.38987L3.99687 5.7345Z" fill="#FAFAFB"/>
<path d="M12.3567 4.59857L11.1673 8.25776L8.0813 8.6757L6.49536 8.89001L6.56505 8.6757L7.6848 5.23607L12.3567 4.59857Z" fill="#FAFAFB"/>
<path d="M29.0781 2.33221L28.9977 2.57334L27.8887 5.98615L25.2313 6.34509L23.2168 6.6184L24.4062 2.96446L29.0781 2.33221Z" fill="#FAFAFB"/>
<path d="M20.7201 3.46802L19.5254 7.12202L14.8535 7.7542L16.0482 4.10027L20.7201 3.46802Z" fill="#FAFAFB"/>
<path d="M7.68483 5.23608L6.56508 8.67571L6.49539 8.89002L6.09896 8.94358L4.18627 9.20077L2.80396 9.38833L3.03433 8.67571L3.18971 8.20427L3.41471 7.51315L3.99871 5.73433L5.38102 5.54683L7.68483 5.23608Z" fill="#45484A"/>
<path d="M16.0482 4.10022L14.8534 7.75416L11.1673 8.25772L12.3567 4.59853L16.0482 4.10022Z" fill="#45484A"/>
<path d="M24.4063 2.96442L23.2168 6.61835L19.5254 7.12198L20.7201 3.46798L24.4063 2.96442Z" fill="#45484A"/>
<path d="M31.8749 4.56637V4.57175L31.8267 4.71637L31.5749 5.48787L27.8887 5.98612L28.9977 2.57331L29.0781 2.33219L29.2657 2.30544L31.1087 2.05362L31.5212 2L31.5963 2.54112L31.8749 4.56637Z" fill="#45484A"/>
<path d="M4.68791 11.5499H1.41503C0.992346 11.5499 0.649658 11.2072 0.649658 10.7845V7.51162C0.649658 6.82974 1.4741 6.48825 1.95628 6.97037L5.22916 10.2432C5.71128 10.7254 5.36978 11.5499 4.68791 11.5499Z" fill="#4F545C"/>
<path d="M1.69433 8.45414C1.89688 8.45414 2.06108 8.28994 2.06108 8.08739C2.06108 7.88484 1.89688 7.72064 1.69433 7.72064C1.49178 7.72064 1.32758 7.88484 1.32758 8.08739C1.32758 8.28994 1.49178 8.45414 1.69433 8.45414Z" fill="#FAFAFB"/>
<path d="M1.69433 10.9529C1.89688 10.9529 2.06108 10.7887 2.06108 10.5861C2.06108 10.3836 1.89688 10.2194 1.69433 10.2194C1.49178 10.2194 1.32758 10.3836 1.32758 10.5861C1.32758 10.7887 1.49178 10.9529 1.69433 10.9529Z" fill="#FAFAFB"/>
<path d="M4.06707 10.9529C4.26962 10.9529 4.43382 10.7887 4.43382 10.5861C4.43382 10.3836 4.26962 10.2194 4.06707 10.2194C3.86452 10.2194 3.70032 10.3836 3.70032 10.5861C3.70032 10.7887 3.86452 10.9529 4.06707 10.9529Z" fill="#FAFAFB"/>
<path opacity="0.2" d="M31.966 12.1422H0.178711V12.7315H31.966V12.1422Z" fill="#1D1E1E"/>
<path opacity="0.2" d="M31.8749 4.56638V4.57175L31.8267 4.71638L31.5749 5.48787L27.8888 5.98612L25.226 6.35044L25.2313 6.34506L28.9978 2.57331L29.2657 2.30544L31.1087 2.05362L31.5213 2L31.5963 2.54112L31.8749 4.56638Z" fill="#1D1E1E"/>
<path opacity="0.2" d="M31.9617 8.67596H31.5417H27.8177H23.1044H22.8982L2.42584 29.1483H31.652C31.8233 29.1483 31.9645 29.0122 31.9645 28.8409V12.7296V12.14V10.7643H31.9617V8.67596H31.9617Z" fill="#1D1E1E"/>
<path opacity="0.2" d="M32 5.42618L31.8765 4.56793L31.5841 5.48437L32 5.42618Z" fill="#1D1E1E"/>
</svg>
