<svg
  width="auto"
  height="auto"
  viewBox="0 0 266 51"
  fill="none"
  xmlns="http://www.w3.org/2000/svg"
>
<path
    d="M0.949997 40.5945L1.64307 0.495532H9.21732L14.9104 28.2678L20.851 0.495532H28.1777L28.9203 40.5945H23.4747L22.8807 12.7233L17.1876 40.5945H12.7817L6.9896 12.6242L6.44505 40.5945H0.949997Z"
    fill="currentColor"
  />
<path
    d="M43.0598 41.0401C40.9805 41.0401 39.2644 40.6606 37.9112 39.9015C36.5581 39.1094 35.535 37.9708 34.8419 36.4856C34.1819 35.0005 33.8518 33.2018 33.8518 31.0896V21.4856C33.8518 19.3734 34.1819 17.5747 34.8419 16.0896C35.535 14.6044 36.5581 13.4823 37.9112 12.7233C39.2644 11.9312 40.9805 11.5351 43.0598 11.5351C45.139 11.5351 46.8551 11.9312 48.2083 12.7233C49.5944 13.4823 50.6175 14.6044 51.2776 16.0896C51.9706 17.5747 52.3172 19.3734 52.3172 21.4856V31.0896C52.3172 33.2018 51.9706 35.0005 51.2776 36.4856C50.6175 37.9708 49.5944 39.1094 48.2083 39.9015C46.8551 40.6606 45.139 41.0401 43.0598 41.0401ZM43.1093 36.3866C43.8683 36.3866 44.4294 36.1721 44.7924 35.7431C45.1555 35.314 45.3865 34.7365 45.4855 34.0104C45.5845 33.2513 45.634 32.4262 45.634 31.5351V21.0401C45.634 20.149 45.5845 19.3404 45.4855 18.6143C45.3865 17.8883 45.1555 17.3107 44.7924 16.8817C44.4294 16.4196 43.8683 16.1886 43.1093 16.1886C42.3502 16.1886 41.7891 16.4196 41.4261 16.8817C41.0631 17.3107 40.8155 17.8883 40.6835 18.6143C40.5845 19.3404 40.535 20.149 40.535 21.0401V31.5351C40.535 32.4262 40.5845 33.2513 40.6835 34.0104C40.8155 34.7365 41.0631 35.314 41.4261 35.7431C41.7891 36.1721 42.3502 36.3866 43.1093 36.3866Z"
    fill="currentColor"
  />
<path
    d="M60.6379 40.5945L54.9448 11.9807H61.529L64.4498 32.5252L67.321 11.9807H73.8062L68.1131 40.5945H60.6379Z"
    fill="currentColor"
  />
<path
    d="M77.1377 40.5945V11.9807H83.8704V40.5945H77.1377ZM77.1377 7.42623V1.83217H83.8704V7.42623H77.1377Z"
    fill="currentColor"
  />
<path
    d="M97.8826 41.0401C95.7374 41.0401 93.9882 40.644 92.6351 39.852C91.282 39.0269 90.2754 37.8388 89.6153 36.2876C88.9882 34.7035 88.6747 32.8058 88.6747 30.5945V21.9807C88.6747 19.7035 88.9882 17.7893 89.6153 16.2381C90.2754 14.687 91.282 13.5153 92.6351 12.7233C94.0212 11.9312 95.7704 11.5351 97.8826 11.5351C100.16 11.5351 101.926 11.9642 103.18 12.8223C104.467 13.6804 105.374 14.9345 105.902 16.5846C106.463 18.2018 106.744 20.182 106.744 22.5252V26.5846H95.3579V32.2282C95.3579 33.1523 95.4404 33.9114 95.6054 34.5054C95.8034 35.0995 96.1004 35.5285 96.4965 35.7926C96.8925 36.0566 97.3711 36.1886 97.9321 36.1886C98.5262 36.1886 99.0047 36.0566 99.3678 35.7926C99.7308 35.4955 99.9948 35.083 100.16 34.5549C100.325 33.9939 100.407 33.3008 100.407 32.4757V30.0995H106.695V32.0302C106.695 34.9345 105.968 37.1622 104.516 38.7134C103.064 40.2645 100.853 41.0401 97.8826 41.0401ZM95.3579 23.2678H100.407V20.545C100.407 19.5549 100.325 18.7629 100.16 18.1688C99.9948 17.5417 99.7308 17.0962 99.3678 16.8322C99.0047 16.5351 98.4932 16.3866 97.8331 16.3866C97.2391 16.3866 96.7605 16.5351 96.3975 16.8322C96.0344 17.1292 95.7704 17.6242 95.6054 18.3173C95.4404 19.0104 95.3579 20.0005 95.3579 21.2876V23.2678Z"
    fill="currentColor"
  />
<path
    d="M134.588 41.1391C131.651 41.1391 129.341 40.5615 127.658 39.4064C126.007 38.2513 124.852 36.6837 124.192 34.7035C123.532 32.6903 123.202 30.38 123.202 27.7728V13.4658C123.202 10.7266 123.532 8.35032 124.192 6.33712C124.852 4.32392 126.007 2.77276 127.658 1.68365C129.341 0.594543 131.651 0.0499878 134.588 0.0499878C137.36 0.0499878 139.522 0.528536 141.073 1.48563C142.658 2.40973 143.78 3.74636 144.44 5.49553C145.1 7.24471 145.43 9.27441 145.43 11.5846V14.951H138.4V11.4856C138.4 10.3635 138.334 9.34042 138.202 8.41633C138.103 7.49223 137.79 6.76616 137.261 6.23811C136.766 5.67705 135.892 5.39652 134.638 5.39652C133.384 5.39652 132.46 5.69355 131.865 6.28761C131.304 6.84867 130.941 7.62425 130.776 8.61435C130.611 9.57144 130.529 10.6605 130.529 11.8817V29.3074C130.529 30.7596 130.644 31.9642 130.875 32.9213C131.106 33.8454 131.519 34.5549 132.113 35.05C132.74 35.512 133.582 35.7431 134.638 35.7431C135.859 35.7431 136.717 35.4625 137.212 34.9015C137.74 34.3074 138.07 33.5318 138.202 32.5747C138.334 31.6176 138.4 30.545 138.4 29.3569V25.7431H145.43V28.9609C145.43 31.3371 145.116 33.4493 144.489 35.2975C143.862 37.1127 142.757 38.5483 141.172 39.6044C139.621 40.6275 137.426 41.1391 134.588 41.1391Z"
    fill="currentColor"
  />
<path
    d="M154.838 41.0401C153.551 41.0401 152.428 40.7101 151.471 40.05C150.547 39.3569 149.838 38.4988 149.343 37.4757C148.848 36.4196 148.6 35.3305 148.6 34.2084C148.6 32.4262 148.93 30.9246 149.59 29.7035C150.25 28.4823 151.125 27.4592 152.214 26.6341C153.336 25.8091 154.574 25.0995 155.927 24.5054C157.313 23.8784 158.732 23.3173 160.184 22.8223V20.347C160.184 19.5219 160.118 18.8289 159.986 18.2678C159.887 17.7068 159.673 17.2777 159.343 16.9807C159.013 16.6837 158.534 16.5351 157.907 16.5351C157.313 16.5351 156.834 16.6672 156.471 16.9312C156.141 17.1952 155.894 17.5747 155.729 18.0698C155.597 18.5318 155.531 19.0764 155.531 19.7035L155.432 21.4361L148.996 21.1886C149.128 17.8883 149.953 15.4625 151.471 13.9114C152.989 12.3272 155.316 11.5351 158.452 11.5351C161.323 11.5351 163.419 12.3272 164.739 13.9114C166.059 15.4955 166.719 17.6407 166.719 20.347V33.5648C166.719 34.6209 166.735 35.578 166.768 36.4361C166.834 37.2942 166.9 38.0698 166.966 38.7629C167.065 39.4559 167.148 40.0665 167.214 40.5945H161.125C161.026 39.9345 160.91 39.1919 160.778 38.3668C160.646 37.5087 160.547 36.8817 160.481 36.4856C160.151 37.6407 159.524 38.6969 158.6 39.6539C157.676 40.578 156.422 41.0401 154.838 41.0401ZM157.313 36.0401C157.742 36.0401 158.138 35.9411 158.501 35.7431C158.864 35.512 159.194 35.248 159.491 34.951C159.788 34.654 160.019 34.3899 160.184 34.1589V26.1886C159.425 26.6176 158.716 27.0467 158.055 27.4757C157.428 27.9048 156.884 28.3833 156.422 28.9114C155.96 29.4064 155.597 29.951 155.333 30.545C155.069 31.1391 154.937 31.8322 154.937 32.6242C154.937 33.6804 155.135 34.5219 155.531 35.149C155.96 35.7431 156.554 36.0401 157.313 36.0401Z"
    fill="currentColor"
  />
<path
    d="M179.915 40.9411C178.1 40.9411 176.665 40.644 175.608 40.05C174.585 39.4559 173.859 38.5978 173.43 37.4757C173.001 36.3536 172.787 35.017 172.787 33.4658V16.4361H169.915V11.9807H172.787V3.41633H179.569V11.9807H183.925V16.4361H179.569V32.8718C179.569 33.8619 179.783 34.5714 180.212 35.0005C180.641 35.3965 181.285 35.5945 182.143 35.5945C182.506 35.5945 182.853 35.578 183.183 35.545C183.546 35.512 183.892 35.479 184.222 35.446V40.5945C183.661 40.6606 183.001 40.7266 182.242 40.7926C181.516 40.8916 180.74 40.9411 179.915 40.9411Z"
    fill="currentColor"
  />
<path
    d="M192.692 41.0401C191.404 41.0401 190.282 40.7101 189.325 40.05C188.401 39.3569 187.692 38.4988 187.196 37.4757C186.701 36.4196 186.454 35.3305 186.454 34.2084C186.454 32.4262 186.784 30.9246 187.444 29.7035C188.104 28.4823 188.979 27.4592 190.068 26.6341C191.19 25.8091 192.428 25.0995 193.781 24.5054C195.167 23.8784 196.586 23.3173 198.038 22.8223V20.347C198.038 19.5219 197.972 18.8289 197.84 18.2678C197.741 17.7068 197.527 17.2777 197.197 16.9807C196.866 16.6837 196.388 16.5351 195.761 16.5351C195.167 16.5351 194.688 16.6672 194.325 16.9312C193.995 17.1952 193.748 17.5747 193.583 18.0698C193.451 18.5318 193.385 19.0764 193.385 19.7035L193.286 21.4361L186.85 21.1886C186.982 17.8883 187.807 15.4625 189.325 13.9114C190.843 12.3272 193.17 11.5351 196.305 11.5351C199.177 11.5351 201.272 12.3272 202.593 13.9114C203.913 15.4955 204.573 17.6407 204.573 20.347V33.5648C204.573 34.6209 204.589 35.578 204.622 36.4361C204.688 37.2942 204.754 38.0698 204.82 38.7629C204.919 39.4559 205.002 40.0665 205.068 40.5945H198.979C198.88 39.9345 198.764 39.1919 198.632 38.3668C198.5 37.5087 198.401 36.8817 198.335 36.4856C198.005 37.6407 197.378 38.6969 196.454 39.6539C195.53 40.578 194.276 41.0401 192.692 41.0401ZM195.167 36.0401C195.596 36.0401 195.992 35.9411 196.355 35.7431C196.718 35.512 197.048 35.248 197.345 34.951C197.642 34.654 197.873 34.3899 198.038 34.1589V26.1886C197.279 26.6176 196.569 27.0467 195.909 27.4757C195.282 27.9048 194.738 28.3833 194.276 28.9114C193.814 29.4064 193.451 29.951 193.187 30.545C192.923 31.1391 192.791 31.8322 192.791 32.6242C192.791 33.6804 192.989 34.5219 193.385 35.149C193.814 35.7431 194.408 36.0401 195.167 36.0401Z"
    fill="currentColor"
  />
<path
    d="M209.898 40.5945V0.495532H216.581V40.5945H209.898Z"
    fill="currentColor"
  />
<path
    d="M230.589 41.0401C228.51 41.0401 226.793 40.6606 225.44 39.9015C224.087 39.1094 223.064 37.9708 222.371 36.4856C221.711 35.0005 221.381 33.2018 221.381 31.0896V21.4856C221.381 19.3734 221.711 17.5747 222.371 16.0896C223.064 14.6044 224.087 13.4823 225.44 12.7233C226.793 11.9312 228.51 11.5351 230.589 11.5351C232.668 11.5351 234.384 11.9312 235.737 12.7233C237.123 13.4823 238.147 14.6044 238.807 16.0896C239.5 17.5747 239.846 19.3734 239.846 21.4856V31.0896C239.846 33.2018 239.5 35.0005 238.807 36.4856C238.147 37.9708 237.123 39.1094 235.737 39.9015C234.384 40.6606 232.668 41.0401 230.589 41.0401ZM230.638 36.3866C231.397 36.3866 231.958 36.1721 232.321 35.7431C232.684 35.314 232.915 34.7365 233.015 34.0104C233.114 33.2513 233.163 32.4262 233.163 31.5351V21.0401C233.163 20.149 233.114 19.3404 233.015 18.6143C232.915 17.8883 232.684 17.3107 232.321 16.8817C231.958 16.4196 231.397 16.1886 230.638 16.1886C229.879 16.1886 229.318 16.4196 228.955 16.8817C228.592 17.3107 228.345 17.8883 228.213 18.6143C228.114 19.3404 228.064 20.149 228.064 21.0401V31.5351C228.064 32.4262 228.114 33.2513 228.213 34.0104C228.345 34.7365 228.592 35.314 228.955 35.7431C229.318 36.1721 229.879 36.3866 230.638 36.3866Z"
    fill="currentColor"
  />
<path
    d="M252.969 50.05C251.022 50.05 249.289 49.8355 247.771 49.4064C246.286 49.0104 245.114 48.3998 244.256 47.5747C243.431 46.7497 243.018 45.6936 243.018 44.4064C243.018 43.4163 243.233 42.5417 243.662 41.7827C244.124 41.0236 244.735 40.38 245.494 39.852C246.286 39.2909 247.127 38.8454 248.018 38.5153L250.84 38.9609C250.444 39.2909 250.065 39.6374 249.702 40.0005C249.371 40.3635 249.091 40.7431 248.86 41.1391C248.629 41.5351 248.513 41.9807 248.513 42.4757C248.513 43.2678 248.893 43.8619 249.652 44.2579C250.444 44.6539 251.797 44.852 253.711 44.852C255.461 44.852 256.781 44.6705 257.672 44.3074C258.563 43.9444 259.008 43.3173 259.008 42.4262C259.008 41.8982 258.893 41.4691 258.662 41.1391C258.431 40.8421 258.035 40.5945 257.474 40.3965C256.946 40.1985 256.187 40.05 255.197 39.951L248.464 39.1094C247.078 38.9114 245.989 38.4328 245.197 37.6738C244.437 36.8817 244.058 35.9576 244.058 34.9015C244.058 33.7134 244.405 32.6738 245.098 31.7827C245.824 30.8586 246.764 29.9015 247.919 28.9114L250.197 30.3965C249.9 30.7266 249.619 31.1061 249.355 31.5351C249.091 31.9312 248.959 32.3602 248.959 32.8223C248.959 33.1853 249.157 33.4823 249.553 33.7134C249.949 33.9444 250.609 34.1094 251.533 34.2084L257.375 34.9015C259.718 35.1325 261.434 35.8751 262.523 37.1292C263.645 38.3503 264.206 40.017 264.206 42.1292C264.206 43.8784 263.81 45.3305 263.018 46.4856C262.259 47.6737 261.055 48.5648 259.404 49.1589C257.754 49.753 255.609 50.05 252.969 50.05ZM253.315 31.5351C251.203 31.5351 249.454 31.1226 248.068 30.2975C246.715 29.4724 245.692 28.3173 244.999 26.8322C244.305 25.347 243.959 23.5978 243.959 21.5846C243.959 19.4064 244.322 17.5747 245.048 16.0896C245.774 14.5714 246.83 13.4328 248.216 12.6738C249.603 11.9147 251.302 11.5351 253.315 11.5351C255.329 11.5351 256.995 11.9642 258.315 12.8223C259.636 13.6804 260.626 14.8685 261.286 16.3866C261.979 17.9048 262.325 19.654 262.325 21.6341C262.325 23.6473 261.995 25.3965 261.335 26.8817C260.708 28.3668 259.735 29.5219 258.414 30.347C257.127 31.1391 255.428 31.5351 253.315 31.5351ZM253.315 27.2282C253.909 27.2282 254.371 27.1127 254.702 26.8817C255.065 26.6506 255.329 26.3041 255.494 25.8421C255.692 25.38 255.824 24.8025 255.89 24.1094C255.989 23.3833 256.038 22.5417 256.038 21.5846C256.038 20.5945 256.005 19.753 255.939 19.0599C255.873 18.3338 255.741 17.7398 255.543 17.2777C255.345 16.7827 255.065 16.4196 254.702 16.1886C254.371 15.9576 253.926 15.8421 253.365 15.8421C252.771 15.8421 252.292 15.9576 251.929 16.1886C251.566 16.4196 251.269 16.7662 251.038 17.2282C250.84 17.6903 250.708 18.2843 250.642 19.0104C250.576 19.7365 250.543 20.5945 250.543 21.5846C250.543 22.4757 250.576 23.2843 250.642 24.0104C250.708 24.7035 250.84 25.2975 251.038 25.7926C251.236 26.2546 251.517 26.6176 251.88 26.8817C252.243 27.1127 252.721 27.2282 253.315 27.2282ZM260.939 16.6341L259.454 14.5549C259.85 13.8289 260.461 13.1523 261.286 12.5252C262.111 11.8982 263.101 11.3206 264.256 10.7926L265.939 14.4559C265.543 14.5549 264.982 14.7365 264.256 15.0005C263.563 15.2645 262.886 15.5615 262.226 15.8916C261.599 16.1886 261.17 16.4361 260.939 16.6341Z"
    fill="currentColor"
  />
</svg>
